<?xml version="1.0" encoding="UTF-8" standalone="no"?>
<!-- Created with Inkscape (http://www.inkscape.org/) -->

<svg
   xmlns:dc="http://purl.org/dc/elements/1.1/"
   xmlns:cc="http://creativecommons.org/ns#"
   xmlns:rdf="http://www.w3.org/1999/02/22-rdf-syntax-ns#"
   xmlns:svg="http://www.w3.org/2000/svg"
   xmlns="http://www.w3.org/2000/svg"
   xmlns:xlink="http://www.w3.org/1999/xlink"
   xmlns:sodipodi="http://sodipodi.sourceforge.net/DTD/sodipodi-0.dtd"
   xmlns:inkscape="http://www.inkscape.org/namespaces/inkscape"
   width="850"
   height="849.99988"
   id="svg3871"
   version="1.1"
   inkscape:version="0.48.4 r9939"
   sodipodi:docname="fed.svg"
   inkscape:export-filename="/home/sergey/projects/new-year/fed.png"
   inkscape:export-xdpi="90"
   inkscape:export-ydpi="90">
  <defs
     id="defs3873">
    <linearGradient
       inkscape:collect="always"
       xlink:href="#linearGradient4196"
       id="linearGradient4457"
       gradientUnits="userSpaceOnUse"
       x1="-45.452209"
       y1="711.45221"
       x2="257.30951"
       y2="408.69046"
       gradientTransform="translate(-108.99424,108.99428)" />
    <linearGradient
       id="linearGradient4196">
      <stop
         style="stop-color:#ffffff;stop-opacity:0;"
         offset="0"
         id="stop4198" />
      <stop
         style="stop-color:#ffffff;stop-opacity:1;"
         offset="1"
         id="stop4200" />
    </linearGradient>
    <linearGradient
       inkscape:collect="always"
       xlink:href="#linearGradient4220"
       id="linearGradient4454"
       gradientUnits="userSpaceOnUse"
       x1="714.6731"
       y1="-60.164696"
       x2="1024.608"
       y2="-370.09973"
       gradientTransform="translate(111.57667,-111.57664)" />
    <linearGradient
       id="linearGradient4220">
      <stop
         style="stop-color:#0000b8;stop-opacity:0;"
         offset="0"
         id="stop4222" />
      <stop
         style="stop-color:#0000b8;stop-opacity:1;"
         offset="1"
         id="stop4224" />
    </linearGradient>
    <linearGradient
       inkscape:collect="always"
       xlink:href="#linearGradient4204"
       id="linearGradient4451"
       gradientUnits="userSpaceOnUse"
       x1="-60.164684"
       y1="714.67297"
       x2="250.74161"
       y2="405.70917"
       gradientTransform="translate(94.249205,94.249236)" />
    <linearGradient
       id="linearGradient4204">
      <stop
         style="stop-color:#00aaff;stop-opacity:0;"
         offset="0"
         id="stop4206" />
      <stop
         style="stop-color:#00aaff;stop-opacity:0.99519229;"
         offset="1"
         id="stop4208" />
    </linearGradient>
    <linearGradient
       inkscape:collect="always"
       xlink:href="#linearGradient4204"
       id="linearGradient4448"
       gradientUnits="userSpaceOnUse"
       x1="714.67303"
       y1="-60.16465"
       x2="1025.5792"
       y2="-369.12851"
       gradientTransform="translate(94.249236,94.249205)" />
    <linearGradient
       id="linearGradient14744">
      <stop
         style="stop-color:#00aaff;stop-opacity:0;"
         offset="0"
         id="stop14746" />
      <stop
         style="stop-color:#00aaff;stop-opacity:0.99519229;"
         offset="1"
         id="stop14748" />
    </linearGradient>
    <radialGradient
       inkscape:collect="always"
       xlink:href="#linearGradient4356"
       id="radialGradient4429"
       gradientUnits="userSpaceOnUse"
       gradientTransform="matrix(1,0,0,0.98233238,50.00002,127.44198)"
       spreadMethod="pad"
       cx="308.65295"
       cy="308.01773"
       fx="308.65295"
       fy="308.01773"
       r="35.951504" />
    <linearGradient
       id="linearGradient4356">
      <stop
         style="stop-color:#ffffff;stop-opacity:0;"
         offset="0"
         id="stop4358" />
      <stop
         style="stop-color:#ffffff;stop-opacity:0.627451;"
         offset="1"
         id="stop4360" />
    </linearGradient>
    <radialGradient
       inkscape:collect="always"
       xlink:href="#linearGradient4366"
       id="radialGradient4431"
       gradientUnits="userSpaceOnUse"
       gradientTransform="matrix(1,0,0,0.98233238,50.00002,127.44198)"
       spreadMethod="pad"
       cx="308.65295"
       cy="308.01773"
       fx="308.65295"
       fy="308.01773"
       r="35.951504" />
    <linearGradient
       id="linearGradient4366">
      <stop
         id="stop4368"
         offset="0"
         style="stop-color:#0000ff;stop-opacity:1;" />
      <stop
         id="stop4370"
         offset="1"
         style="stop-color:#0000ff;stop-opacity:0;" />
    </linearGradient>
    <radialGradient
       inkscape:collect="always"
       xlink:href="#linearGradient4356"
       id="radialGradient4433"
       gradientUnits="userSpaceOnUse"
       gradientTransform="matrix(1,0,0,0.98233238,50.00002,127.44198)"
       spreadMethod="pad"
       cx="308.65295"
       cy="308.01773"
       fx="308.65295"
       fy="308.01773"
       r="35.951504" />
    <linearGradient
       id="linearGradient14759">
      <stop
         style="stop-color:#ffffff;stop-opacity:0;"
         offset="0"
         id="stop14761" />
      <stop
         style="stop-color:#ffffff;stop-opacity:0.627451;"
         offset="1"
         id="stop14763" />
    </linearGradient>
    <radialGradient
       inkscape:collect="always"
       xlink:href="#linearGradient4366"
       id="radialGradient4435"
       gradientUnits="userSpaceOnUse"
       gradientTransform="matrix(1,0,0,0.98233238,50.00002,127.44198)"
       spreadMethod="pad"
       cx="308.65295"
       cy="308.01773"
       fx="308.65295"
       fy="308.01773"
       r="35.951504" />
    <linearGradient
       id="linearGradient14766">
      <stop
         id="stop14768"
         offset="0"
         style="stop-color:#0000ff;stop-opacity:1;" />
      <stop
         id="stop14770"
         offset="1"
         style="stop-color:#0000ff;stop-opacity:0;" />
    </linearGradient>
    <radialGradient
       inkscape:collect="always"
       xlink:href="#linearGradient4356"
       id="radialGradient4437"
       gradientUnits="userSpaceOnUse"
       gradientTransform="matrix(1,0,0,0.98233238,50.00002,127.44198)"
       spreadMethod="pad"
       cx="308.65295"
       cy="308.01773"
       fx="308.65295"
       fy="308.01773"
       r="35.951504" />
    <linearGradient
       id="linearGradient14773">
      <stop
         style="stop-color:#ffffff;stop-opacity:0;"
         offset="0"
         id="stop14775" />
      <stop
         style="stop-color:#ffffff;stop-opacity:0.627451;"
         offset="1"
         id="stop14777" />
    </linearGradient>
    <radialGradient
       inkscape:collect="always"
       xlink:href="#linearGradient4366"
       id="radialGradient4439"
       gradientUnits="userSpaceOnUse"
       gradientTransform="matrix(1,0,0,0.98233238,50.00002,127.44198)"
       spreadMethod="pad"
       cx="308.65295"
       cy="308.01773"
       fx="308.65295"
       fy="308.01773"
       r="35.951504" />
    <linearGradient
       id="linearGradient14780">
      <stop
         id="stop14782"
         offset="0"
         style="stop-color:#0000ff;stop-opacity:1;" />
      <stop
         id="stop14784"
         offset="1"
         style="stop-color:#0000ff;stop-opacity:0;" />
    </linearGradient>
    <radialGradient
       inkscape:collect="always"
       xlink:href="#linearGradient4356"
       id="radialGradient4441"
       gradientUnits="userSpaceOnUse"
       gradientTransform="matrix(1,0,0,0.98233238,50.00002,127.44198)"
       spreadMethod="pad"
       cx="308.65295"
       cy="308.01773"
       fx="308.65295"
       fy="308.01773"
       r="35.951504" />
    <linearGradient
       id="linearGradient14787">
      <stop
         style="stop-color:#ffffff;stop-opacity:0;"
         offset="0"
         id="stop14789" />
      <stop
         style="stop-color:#ffffff;stop-opacity:0.627451;"
         offset="1"
         id="stop14791" />
    </linearGradient>
    <radialGradient
       inkscape:collect="always"
       xlink:href="#linearGradient4366"
       id="radialGradient4443"
       gradientUnits="userSpaceOnUse"
       gradientTransform="matrix(1,0,0,0.98233238,50.00002,127.44198)"
       spreadMethod="pad"
       cx="308.65295"
       cy="308.01773"
       fx="308.65295"
       fy="308.01773"
       r="35.951504" />
    <linearGradient
       id="linearGradient14794">
      <stop
         id="stop14796"
         offset="0"
         style="stop-color:#0000ff;stop-opacity:1;" />
      <stop
         id="stop14798"
         offset="1"
         style="stop-color:#0000ff;stop-opacity:0;" />
    </linearGradient>
    <linearGradient
       inkscape:collect="always"
       xlink:href="#linearGradient4204"
       id="linearGradient15122"
       gradientUnits="userSpaceOnUse"
       gradientTransform="translate(156.15818,194.61207)"
       x1="714.67303"
       y1="-60.16465"
       x2="1025.5792"
       y2="-369.12851" />
    <linearGradient
       inkscape:collect="always"
       xlink:href="#linearGradient4204"
       id="linearGradient15125"
       gradientUnits="userSpaceOnUse"
       gradientTransform="translate(194.61207,156.15818)"
       x1="-60.164684"
       y1="714.67297"
       x2="250.74161"
       y2="405.70917" />
    <linearGradient
       inkscape:collect="always"
       xlink:href="#linearGradient4220"
       id="linearGradient15128"
       gradientUnits="userSpaceOnUse"
       gradientTransform="translate(191.38808,-223.87022)"
       x1="714.6731"
       y1="-60.164696"
       x2="1024.608"
       y2="-370.09973" />
    <linearGradient
       inkscape:collect="always"
       xlink:href="#linearGradient4196"
       id="linearGradient15131"
       gradientUnits="userSpaceOnUse"
       gradientTransform="translate(-219.34988,186.29743)"
       x1="-45.452209"
       y1="711.45221"
       x2="257.30951"
       y2="408.69046" />
  </defs>
  <sodipodi:namedview
     id="base"
     pagecolor="#ffffff"
     bordercolor="#666666"
     borderopacity="1.0"
     inkscape:pageopacity="0.0"
     inkscape:pageshadow="2"
     inkscape:zoom="0.7"
     inkscape:cx="291.3598"
     inkscape:cy="407.5251"
     inkscape:document-units="px"
     inkscape:current-layer="layer1"
     showgrid="false"
     fit-margin-top="0"
     fit-margin-left="0"
     fit-margin-right="0"
     fit-margin-bottom="0"
     inkscape:window-width="1278"
     inkscape:window-height="974"
     inkscape:window-x="0"
     inkscape:window-y="24"
     inkscape:window-maximized="0" />
  <metadata
     id="metadata3876">
    <rdf:RDF>
      <cc:Work
         rdf:about="">
        <dc:format>image/svg+xml</dc:format>
        <dc:type
           rdf:resource="http://purl.org/dc/dcmitype/StillImage" />
        <dc:title />
      </cc:Work>
    </rdf:RDF>
  </metadata>
  <g
     inkscape:label="Layer 1"
     inkscape:groupmode="layer"
     id="layer1"
     transform="translate(-25.185828,-245.96471)">
    <path
       style="fill:#0096e6;fill-opacity:1;stroke:none"
       inkscape:connector-curvature="0"
       d="m 807.38916,669.48077 c 0,-25.71969 -31.2147,-65.71254 -93.644,-119.97857 -10.452,-9.04433 -25.565,-13.56651 -45.3391,-13.56651 -14.4068,0 -24.435,2.54367 -30.0845,7.63102 l -58.4747,-59.77734 c 4.5197,-10.74024 6.7796,-20.91511 6.7796,-30.52463 0,-18.08868 -4.096,-32.07915 -12.288,-41.97146 -53.10737,-65.00626 -94.49162,-97.50941 -124.15279,-97.50941 -23.44618,0 -62.71168,29.53549 -117.79651,88.60647 -1.69482,1.69572 -3.81349,4.66334 -6.35601,8.90294 -8.19203,13.00132 -12.28805,26.99183 -12.28805,41.97146 0,7.63122 2.25988,17.8061 6.77965,30.52463 l -58.47443,59.77734 c -6.21478,-5.08735 -16.24307,-7.63102 -30.08482,-7.63102 -21.46892,0 -38.70061,6.07659 -51.69505,18.22978 -58.192,54.26602 -87.287992,92.70444 -87.287992,115.3153 0,16.11015 13.418102,39.0037 40.254312,68.68057 12.42917,13.84908 32.06186,32.92692 58.89808,57.23352 9.88706,7.06599 23.44638,10.599 40.67796,10.599 9.88706,0 19.7741,-2.9676 29.66117,-8.9029 l 60.59329,61.47309 c -5.36728,9.3269 -8.05092,19.3606 -8.05092,30.1008 0,11.588 2.82487,23.3173 8.47457,35.1879 7.62698,16.1101 25.8473,36.8839 54.661,62.3212 31.356,27.98085 55.36724,41.97155 72.03375,41.97155 15.81921,0 38.27685,-13.2841 67.37295,-39.85184 13.2769,-11.588 31.35599,-29.9593 54.23724,-55.11381 9.0396,-12.43589 13.5594,-27.2743 13.5594,-44.515 0,-9.6097 -2.6836,-19.6433 -8.0506,-30.1008 l 60.5929,-61.4731 c 11.017,5.9352 20.9041,8.9029 29.6612,8.9029 8.7569,0 18.7851,-1.8371 30.0845,-5.5113 7.3447,-2.2611 13.9832,-6.2181 19.9153,-11.871 59.887,-55.67914 89.8306,-95.38942 89.8306,-119.1308 z"
       id="path3066-8"
       sodipodi:nodetypes="scsccscsccsccscsccsccsccsccsccsccs" />
    <path
       style="fill:#00dcff;fill-opacity:0.3371816;stroke:none"
       d="M 224.99309,671.15755 449.9932,446.15744 450.18586,670.96471 z"
       id="path4167"
       inkscape:connector-curvature="0"
       sodipodi:nodetypes="cccc" />
    <path
       style="fill:#00aaff;fill-opacity:0.39208356;stroke:none"
       d="M 450.18586,670.96471 674.9931,671.15734 449.99299,896.15745 z"
       id="rect4160"
       inkscape:connector-curvature="0"
       sodipodi:nodetypes="cccc" />
    <path
       id="path4165"
       d="m 224.99309,671.15755 225.19277,-0.19284 -0.19287,225.19274 z"
       style="fill:#00a0ff;fill-opacity:0.39215686;stroke:none"
       inkscape:connector-curvature="0"
       sodipodi:nodetypes="cccc" />
    <path
       id="path4169"
       d="M 450.18586,670.96471 449.9932,446.15744 674.9931,671.15734 z"
       style="fill:#00ffff;fill-opacity:0.3371816;stroke:none"
       inkscape:connector-curvature="0"
       sodipodi:nodetypes="cccc" />
    <g
       id="g4179"
       transform="translate(-49.814182,170.96466)">
      <path
         sodipodi:nodetypes="cccc"
         style="fill:#d3e8ff;fill-opacity:1;stroke:none"
         d="m 572.45754,427.928 c -38.2511,21.78339 -98.2857,22.34193 -144.9151,0 l 72.4576,72.07205 z"
         id="path4030"
         inkscape:connector-curvature="0" />
      <path
         inkscape:connector-curvature="0"
         id="path4032"
         d="m 572.45754,572.0721 c -38.2511,-21.78339 -98.2857,-22.34193 -144.9151,0 l 72.4576,-72.07205 z"
         style="fill:#33cfff;fill-opacity:1;stroke:none"
         sodipodi:nodetypes="cccc" />
      <path
         inkscape:connector-curvature="0"
         id="path4034"
         d="m 572.07214,572.45755 c -21.7834,-38.2511 -22.342,-98.2857 0,-144.9151 l -72.0721,72.4576 z"
         style="fill:#aaebff;fill-opacity:1;stroke:none"
         sodipodi:nodetypes="cccc" />
      <path
         sodipodi:nodetypes="cccc"
         style="fill:#aaebff;fill-opacity:1;stroke:none"
         d="m 427.92794,572.45755 c 21.7834,-38.2511 22.342,-98.2857 0,-144.9151 l 72.0721,72.4576 z"
         id="path4036"
         inkscape:connector-curvature="0" />
    </g>
    <rect
       style="fill:#ffffff;fill-opacity:0.3371816;stroke:none"
       id="rect4044"
       width="144.52969"
       height="144.52956"
       x="-228.65166"
       y="720.50836"
       transform="matrix(0.70710678,-0.70710678,0.70710678,0.70710678,0,0)" />
    <rect
       style="fill:url(#linearGradient15131);fill-opacity:1;fill-rule:nonzero;stroke:none"
       id="rect4185"
       width="302.76172"
       height="302.76172"
       x="-208.03233"
       y="504.91812"
       transform="matrix(0.75075084,-0.66058548,0.75075084,0.66058548,0,0)" />
    <rect
       transform="matrix(0.76393226,0.64529645,0.76393226,-0.64529645,0,0)"
       y="-522.776"
       x="814.53918"
       height="297.53766"
       width="297.53766"
       id="rect4190"
       style="fill:url(#linearGradient15128);fill-opacity:1;fill-rule:nonzero;stroke:none" />
    <rect
       style="fill:url(#linearGradient15125);fill-opacity:1;fill-rule:nonzero;stroke:none"
       id="rect4192"
       width="297.53766"
       height="297.53766"
       x="90.331009"
       y="490.43521"
       transform="matrix(-0.64529645,0.76393226,0.64529645,0.76393226,0,0)" />
    <rect
       transform="matrix(0.64529645,0.76393226,-0.64529645,0.76393226,0,0)"
       y="-207.20668"
       x="787.97296"
       height="297.53766"
       width="297.53766"
       id="rect4194"
       style="fill:url(#linearGradient15122);fill-opacity:1;fill-rule:nonzero;stroke:none" />
    <path
       sodipodi:nodetypes="scsccsccsccccscccccsccsccccsccccsccscccscccscsccsccsscsccscsccsccscsccsccsccsccsccsccs"
       style="fill:#e9e9e9;fill-opacity:1;stroke:none"
       inkscape:connector-curvature="0"
       d="m 875.18583,672.54133 c 0,12.01201 -4.352,25.67569 -13.056,40.9911 -7.2034,12.61251 -25.51198,34.15906 -54.92573,64.63963 -29.41396,30.48048 -50.12376,49.32423 -62.12937,56.53149 -3.60174,2.10216 -15.0071,6.75676 -34.21612,13.96401 2.70144,7.20726 4.05217,14.56454 4.05217,22.07195 0,6.907 -1.50078,12.91299 -4.50235,18.01809 -11.40522,18.61872 -25.06169,32.883 -40.96936,42.79283 -4.80222,3.00294 -12.15564,4.50436 -22.06027,4.50436 -5.10233,0 -11.70545,-1.50142 -19.80935,-4.50436 -1.80073,6.60652 -4.95218,16.21609 -9.45434,28.82871 -5.70273,11.71183 -17.10809,25.82587 -34.21611,42.34226 -13.8066,12.9128 -27.6131,25.6755 -41.41949,38.2881 -36.01694,36.6367 -66.78149,54.9551 -92.29366,54.9551 -14.10648,0 -26.41222,-3.3032 -36.91721,-9.9097 -16.20773,-10.2103 -38.86843,-28.6789 -67.9821,-55.4056 -30.61429,-27.9278 -50.27347,-48.94887 -58.97751,-63.06301 -4.20209,-6.60674 -8.70427,-18.46849 -13.50652,-35.58547 -1.80095,0.30017 -4.95241,1.05092 -9.45437,2.25218 -4.50218,1.20116 -7.95382,1.80179 -10.35496,1.80179 -9.9046,0 -17.25803,-1.50142 -22.06028,-4.50436 -15.90744,-10.21031 -29.5639,-24.47458 -40.96937,-42.79282 -2.40113,-3.90394 -3.60169,-12.46249 -3.60169,-25.67563 0,-6.00599 1.05051,-10.81083 3.15155,-14.41441 -9.00433,-2.70268 -23.11103,-9.15917 -42.32006,-19.36948 C 131.28588,816.98584 111.62671,798.2171 88.21581,772.99186 65.70516,748.66762 52.198755,733.50234 47.69657,727.49614 32.689405,707.3761 25.185828,689.05787 25.185828,672.54134 c 0,-10.81081 3.451648,-23.12307 10.354955,-36.9368 5.702736,-11.11124 27.613102,-37.83801 65.731087,-80.18029 28.21317,-31.23123 53.12484,-50.30033 74.73501,-57.20728 5.40266,-1.8017 9.90482,-3.90375 13.50651,-6.30615 -3.00152,-8.10817 -4.50228,-15.31537 -4.50228,-21.62164 0,-9.6096 5.25251,-20.87088 15.75751,-33.78385 9.00433,-11.11106 18.60886,-19.66959 28.81355,-25.67558 3.90179,-2.40241 11.25523,-3.60361 22.06031,-3.60361 3.60169,0 10.05476,1.05097 19.35919,3.1529 2.70121,-7.8077 7.35343,-19.21901 13.95665,-34.23391 4.20187,-7.80792 28.9635,-33.33349 74.2849,-76.57672 37.5176,-35.7358 67.83181,-53.6037 90.94263,-53.6037 20.40983,0 46.37212,13.21321 77.88689,39.63965 8.70405,7.20721 30.9145,28.52857 66.63135,63.96411 14.70684,14.71467 23.86113,28.22811 27.46286,40.54037 3.90179,13.21322 6.15287,19.81982 6.75325,19.81982 2.10107,0 5.40257,-0.45037 9.90452,-1.35111 4.50217,-0.90094 7.80378,-1.35142 9.90484,-1.35142 10.50494,0 18.30861,1.65168 23.41102,4.95503 15.30701,10.2101 28.06296,23.4233 38.26785,39.63964 2.10106,3.60339 3.15159,11.56133 3.15159,23.87378 0,5.70577 -0.90047,11.11118 -2.70141,16.21622 11.40544,3.60361 27.91326,12.01201 49.52345,25.22523 76.53584,72.37233 114.80377,124.1741 114.80377,155.40531 z m -45.47129,-3.15324 c 0,-27.32715 -33.16558,-69.81955 -99.49675,-127.4772 -11.10518,-9.60961 -27.16278,-14.41442 -48.1728,-14.41442 -15.30722,0 -25.96215,2.70265 -31.96478,8.10795 l -62.12937,-63.51345 c 4.80229,-11.41152 7.20343,-22.22232 7.20343,-32.43241 0,-19.21921 -4.35203,-34.08411 -13.05611,-44.59469 -56.42655,-69.06915 -100.39732,-103.60373 -131.91231,-103.60373 -24.91157,0 -66.63115,31.38146 -125.15877,94.14437 -1.80073,1.80169 -4.05182,4.95481 -6.75326,9.45936 -8.70403,13.81394 -13.05605,28.67883 -13.05605,44.59469 0,8.10816 2.40112,18.91896 7.20338,32.43241 l -62.12907,63.51345 c -6.60321,-5.4053 -17.25826,-8.10795 -31.96513,-8.10795 -22.81073,0 -41.1194,6.45638 -54.926,19.36913 -61.82898,57.65764 -92.743477,98.49846 -92.743477,122.52249 0,17.11707 14.256737,41.44145 42.770197,72.97315 13.206,14.71467 34.06574,34.98484 62.57921,60.8106 10.50501,7.50763 24.91178,11.26144 43.22034,11.26144 10.505,0 21.01,-3.15308 31.51499,-9.45933 l 64.38038,65.31517 c -5.70274,9.90983 -8.55411,20.57053 -8.55411,31.9821 0,12.31225 3.00142,24.77463 9.00425,37.38715 8.10365,17.11698 27.46274,39.18904 58.07727,66.21613 33.31573,29.7298 58.82768,44.5947 76.53585,44.5947 16.80791,0 40.66917,-14.1141 71.58377,-42.3425 14.10669,-12.31223 33.31573,-31.83174 57.62714,-58.5584 9.6045,-13.21314 14.40675,-28.97883 14.40675,-47.29708 0,-10.21031 -2.85125,-20.87101 -8.55376,-31.9821 l 64.38007,-65.31516 c 11.70556,6.30625 22.21053,9.45933 31.51492,9.45933 9.30424,0 19.95917,-1.95192 31.96478,-5.85576 7.80385,-2.40242 14.85723,-6.60673 21.16011,-12.61293 63.62994,-59.15905 95.44491,-101.35126 95.44491,-126.5765 z"
       id="path4248" />
    <path
       id="path3994"
       d="m 850.18579,672.44856 c 0,11.30542 -4.096,24.16536 -12.288,38.57986 -6.77967,11.8706 -24.01127,32.1497 -51.6948,60.8373 -27.68373,28.6875 -47.1753,46.4228 -58.4747,53.2061 -3.38987,1.9785 -14.12433,6.3593 -32.2034,13.1426 2.54253,6.7833 3.8138,13.7078 3.8138,20.7736 0,6.5007 -1.4125,12.1534 -4.2375,16.9582 -10.73433,17.5235 -23.58747,30.9487 -38.5594,40.2756 -4.51973,2.8263 -11.4406,4.2394 -20.7626,4.2394 -4.8022,0 -11.0169,-1.4131 -18.6441,-4.2394 -1.6948,6.2179 -4.66087,15.2622 -8.8982,27.1329 -5.36727,11.0229 -16.10173,24.3067 -32.2034,39.8515 -12.99444,12.1533 -25.98879,24.16528 -38.98304,36.03598 -33.8983,34.4816 -62.85317,51.7224 -86.86462,51.7224 -13.27669,0 -24.85856,-3.1089 -34.74561,-9.3268 -15.25433,-9.6097 -36.58205,-26.9919 -63.98315,-52.1464 -28.81345,-26.28508 -47.3162,-46.06958 -55.50824,-59.35348 -3.95491,-6.2181 -8.19225,-17.3821 -12.71202,-33.4922 -1.69501,0.28251 -4.66109,0.9891 -8.89823,2.1197 -4.23734,1.1305 -7.48595,1.6958 -9.74584,1.6958 -9.32198,0 -16.24285,-1.4131 -20.76262,-4.2394 -14.97171,-9.6097 -27.82484,-23.0349 -38.5594,-40.27559 -2.25989,-3.6743 -3.38983,-11.7294 -3.38983,-24.1653 0,-5.6527 0.98872,-10.1749 2.96617,-13.5665 -8.47467,-2.5437 -21.75156,-8.6204 -39.83065,-18.2301 -14.97171,-11.588 -33.47446,-29.2527 -55.50825,-52.9941 -21.186492,-22.8934 -33.898402,-37.1666 -38.135752,-42.8195 -14.12439,-18.9365 -21.18658,-36.17719 -21.18658,-51.72216 0,-10.17488 3.24861,-21.76289 9.74584,-34.76404 5.36728,-10.45764 25.9888,-35.61225 61.864552,-75.4638 26.55357,-29.3941 49.99984,-47.34149 70.33883,-53.84215 5.08485,-1.69571 9.32218,-3.67411 12.71201,-5.9352 -2.82496,-7.63121 -4.23744,-14.41446 -4.23744,-20.34977 0,-9.04433 4.94353,-19.64318 14.83059,-31.79657 8.47467,-10.45746 17.51422,-18.51255 27.11864,-24.16525 3.67227,-2.26109 10.59315,-3.39163 20.76264,-3.39163 3.38983,0 9.4633,0.98915 18.22041,2.96744 2.54232,-7.34843 6.92088,-18.08848 13.13567,-32.22015 3.9547,-7.34863 27.25977,-31.3727 69.9152,-72.07221 35.31068,-33.63369 63.8417,-50.45054 85.59306,-50.45054 19.20925,0 43.64435,12.43597 73.3053,37.30791 8.19205,6.78325 29.096,26.85042 62.71186,60.20151 13.84173,13.8491 22.45753,26.56763 25.8474,38.15564 3.67227,12.43597 5.79093,18.65395 6.356,18.65395 1.97747,0 5.08477,-0.42388 9.3219,-1.27163 4.23733,-0.84795 7.34473,-1.27193 9.3222,-1.27193 9.887,0 17.23163,1.55452 22.0339,4.66356 14.4066,9.6095 26.4122,22.04546 36.0168,37.30789 1.97747,3.39143 2.9662,10.88125 2.9662,22.46944 0,5.37014 -0.8475,10.45758 -2.5425,15.26233 10.73453,3.39163 26.2713,11.30542 46.6103,23.74139 72.03373,68.11513 108.0506,116.86973 108.0506,146.26381 z m -42.7965,-2.96775 c 0,-25.71967 -31.21467,-65.71252 -93.644,-119.97854 -10.45193,-9.04434 -25.56497,-13.56651 -45.3391,-13.56651 -14.4068,0 -24.43497,2.54367 -30.0845,7.63101 l -58.4747,-59.77736 c 4.5198,-10.74025 6.7797,-20.91512 6.7797,-30.52462 0,-18.08867 -4.09603,-32.07916 -12.2881,-41.97147 -53.10734,-65.00626 -94.49159,-97.50939 -124.15276,-97.50939 -23.44618,0 -62.71167,29.53549 -117.79648,88.60646 -1.69481,1.69571 -3.81348,4.66335 -6.35601,8.90293 -8.19203,13.00135 -12.28805,26.99184 -12.28805,41.97147 0,7.63121 2.25988,17.80608 6.77965,30.52462 l -58.47441,59.77736 c -6.21479,-5.08734 -16.24307,-7.63101 -30.08483,-7.63101 -21.46892,0 -38.70061,6.07659 -51.69506,18.22977 -58.19198,54.26601 -87.287972,92.70443 -87.287972,115.31528 0,16.11018 13.418102,39.00371 40.254302,68.68061 12.42918,13.8491 32.06187,32.9269 58.89808,57.2335 9.88706,7.066 23.44638,10.599 40.67796,10.599 9.88706,0 19.77412,-2.9676 29.66117,-8.9029 l 60.59329,61.4731 c -5.36728,9.3269 -8.05092,19.3605 -8.05092,30.1008 0,11.588 2.82486,23.3173 8.47458,35.1879 7.62697,16.1101 25.84729,36.8838 54.66096,62.3211 31.35598,27.98098 55.36723,41.97148 72.03374,41.97148 15.81921,0 38.27686,-13.2839 67.37296,-39.85178 13.27688,-11.588 31.35598,-29.9593 54.2373,-55.1138 9.03953,-12.4359 13.5593,-27.2742 13.5593,-44.5149 0,-9.6097 -2.68353,-19.6433 -8.0506,-30.1008 l 60.593,-61.47309 c 11.017,5.9353 20.90403,8.9029 29.6611,8.9029 8.75693,0 18.7851,-1.8371 30.0845,-5.5113 7.3448,-2.2611 13.98327,-6.2181 19.9154,-11.871 59.887,-55.6791 89.8305,-95.38941 89.8305,-119.13081 z"
       inkscape:connector-curvature="0"
       style="fill:#000000;fill-opacity:1;stroke:none"
       sodipodi:nodetypes="scsccsccsccccscccccsccsccccsccccsccscccscccscsccsccsscsccscsccsccscsccsccsccsccsccsccs" />
    <g
       id="g4415"
       transform="translate(-50.140701,-29.04425)"
       style="fill:#a1a1e7;fill-opacity:1">
      <g
         transform="translate(0,200)"
         id="g4374"
         style="fill:#a1a1e7;fill-opacity:1">
        <path
           sodipodi:type="arc"
           style="fill:#a1a1e7;fill-opacity:1;fill-rule:nonzero;stroke:none"
           id="path4354"
           sodipodi:cx="308.65295"
           sodipodi:cy="308.01773"
           sodipodi:rx="35.951504"
           sodipodi:ry="35.316326"
           d="m 344.60446,308.01773 c 0,19.50467 -16.09604,35.31633 -35.95151,35.31633 -19.85546,0 -35.9515,-15.81166 -35.9515,-35.31633 0,-19.50467 16.09604,-35.31633 35.9515,-35.31633 19.85547,0 35.95151,15.81166 35.95151,35.31633 z"
           transform="translate(-1e-5,0)" />
        <path
           transform="translate(-1e-5,0)"
           d="m 344.60446,308.01773 c 0,19.50467 -16.09604,35.31633 -35.95151,35.31633 -19.85546,0 -35.9515,-15.81166 -35.9515,-35.31633 0,-19.50467 16.09604,-35.31633 35.9515,-35.31633 19.85547,0 35.95151,15.81166 35.95151,35.31633 z"
           sodipodi:ry="35.316326"
           sodipodi:rx="35.951504"
           sodipodi:cy="308.01773"
           sodipodi:cx="308.65295"
           id="path4364"
           style="fill:#a1a1e7;fill-opacity:1;fill-rule:nonzero;stroke:none"
           sodipodi:type="arc" />
      </g>
      <g
         transform="translate(383.34713,200.00005)"
         id="g4378"
         style="fill:#a1a1e7;fill-opacity:1">
        <path
           transform="translate(-1e-5,0)"
           d="m 344.60446,308.01773 c 0,19.50467 -16.09604,35.31633 -35.95151,35.31633 -19.85546,0 -35.9515,-15.81166 -35.9515,-35.31633 0,-19.50467 16.09604,-35.31633 35.9515,-35.31633 19.85547,0 35.95151,15.81166 35.95151,35.31633 z"
           sodipodi:ry="35.316326"
           sodipodi:rx="35.951504"
           sodipodi:cy="308.01773"
           sodipodi:cx="308.65295"
           id="path4380"
           style="fill:#a1a1e7;fill-opacity:1;fill-rule:nonzero;stroke:none"
           sodipodi:type="arc" />
        <path
           sodipodi:type="arc"
           style="fill:#a1a1e7;fill-opacity:1;fill-rule:nonzero;stroke:none"
           id="path4382"
           sodipodi:cx="308.65295"
           sodipodi:cy="308.01773"
           sodipodi:rx="35.951504"
           sodipodi:ry="35.316326"
           d="m 344.60446,308.01773 c 0,19.50467 -16.09604,35.31633 -35.95151,35.31633 -19.85546,0 -35.9515,-15.81166 -35.9515,-35.31633 0,-19.50467 16.09604,-35.31633 35.9515,-35.31633 19.85547,0 35.95151,15.81166 35.95151,35.31633 z"
           transform="translate(-1e-5,0)" />
      </g>
      <g
         id="g4388"
         transform="translate(383.34713,583.96463)"
         style="fill:#a1a1e7;fill-opacity:1">
        <path
           sodipodi:type="arc"
           style="fill:#a1a1e7;fill-opacity:1;fill-rule:nonzero;stroke:none"
           id="path4390"
           sodipodi:cx="308.65295"
           sodipodi:cy="308.01773"
           sodipodi:rx="35.951504"
           sodipodi:ry="35.316326"
           d="m 344.60446,308.01773 c 0,19.50467 -16.09604,35.31633 -35.95151,35.31633 -19.85546,0 -35.9515,-15.81166 -35.9515,-35.31633 0,-19.50467 16.09604,-35.31633 35.9515,-35.31633 19.85547,0 35.95151,15.81166 35.95151,35.31633 z"
           transform="translate(-1e-5,0)" />
        <path
           transform="translate(-1e-5,0)"
           d="m 344.60446,308.01773 c 0,19.50467 -16.09604,35.31633 -35.95151,35.31633 -19.85546,0 -35.9515,-15.81166 -35.9515,-35.31633 0,-19.50467 16.09604,-35.31633 35.9515,-35.31633 19.85547,0 35.95151,15.81166 35.95151,35.31633 z"
           sodipodi:ry="35.316326"
           sodipodi:rx="35.951504"
           sodipodi:cy="308.01773"
           sodipodi:cx="308.65295"
           id="path4392"
           style="fill:#a1a1e7;fill-opacity:1;fill-rule:nonzero;stroke:none"
           sodipodi:type="arc" />
      </g>
      <g
         transform="translate(1.8957532e-5,583.98235)"
         id="g4398"
         style="fill:#a1a1e7;fill-opacity:1">
        <path
           transform="translate(-1e-5,0)"
           d="m 344.60446,308.01773 c 0,19.50467 -16.09604,35.31633 -35.95151,35.31633 -19.85546,0 -35.9515,-15.81166 -35.9515,-35.31633 0,-19.50467 16.09604,-35.31633 35.9515,-35.31633 19.85547,0 35.95151,15.81166 35.95151,35.31633 z"
           sodipodi:ry="35.316326"
           sodipodi:rx="35.951504"
           sodipodi:cy="308.01773"
           sodipodi:cx="308.65295"
           id="path4400"
           style="fill:#a1a1e7;fill-opacity:1;fill-rule:nonzero;stroke:none"
           sodipodi:type="arc" />
        <path
           sodipodi:type="arc"
           style="fill:#a1a1e7;fill-opacity:1;fill-rule:nonzero;stroke:none"
           id="path4402"
           sodipodi:cx="308.65295"
           sodipodi:cy="308.01773"
           sodipodi:rx="35.951504"
           sodipodi:ry="35.316326"
           d="m 344.60446,308.01773 c 0,19.50467 -16.09604,35.31633 -35.95151,35.31633 -19.85546,0 -35.9515,-15.81166 -35.9515,-35.31633 0,-19.50467 16.09604,-35.31633 35.9515,-35.31633 19.85547,0 35.95151,15.81166 35.95151,35.31633 z"
           transform="translate(-1e-5,0)" />
      </g>
    </g>
    <g
       id="g3978"
       transform="matrix(1.294213,0,0,1.4870807,225.73675,393.12519)"
       style="fill:#ffffff;fill-opacity:1">
      <path
         style="fill:#ffffff;fill-opacity:1;stroke:#000000;stroke-width:6"
         id="path3123"
         d="m 226.751,267.139 c 0,5.514 -5.6,9.982 -12.505,9.982 h -80.888 c -6.906,0 -12.505,-4.471 -12.505,-9.982 l 0,0 c 0,-5.516 5.599,-9.984 12.505,-9.984 h 80.888 c 6.907,-10e-4 12.505,4.469 12.505,9.984 l 0,0 z"
         inkscape:connector-curvature="0" />
      <path
         style="fill:#ffffff;fill-opacity:1;stroke:#000000;stroke-width:6"
         id="path3125"
         d="m 138.811,288.07 c -0.255,0.406 -0.504,0.816 -0.781,1.214 -11.416,16.377 -49.65,7.444 -28.31,-28.286 -36.066,-4.747 -45.65,29.279 -35.228,47.641 11.453,23.411 61.479,30.428 80.41,-2.978 2.924,-5.161 4.899,-11.17 6.144,-17.591 H 138.811 z M 110.24,222.289 c 11.402,5.995 20.278,14.603 26.009,24.044 h 24.517 C 150.016,182.337 100.897,150.435 54.16,155.79 c -53.284,6.105 -81.882,90.319 0.496,110.666 -13.4,-24.813 7.443,-69.477 55.584,-44.167 z"
         inkscape:connector-curvature="0" />
      <path
         style="fill:#ffffff;fill-opacity:1;stroke:#000000;stroke-width:6"
         id="path3127"
         d="m 186.669,300.936 c -0.537,-4.388 -0.93,-8.675 -1.193,-12.865 H 161.97 c -0.259,4.539 -0.657,9.177 -1.239,13.938 -12.647,8.146 -7.717,25.725 -23.735,36.234 10.062,0.265 18.271,-1.708 20.92,-5.415 0,10.75 9.617,19.812 15.886,32.858 5.824,-13.119 15.208,-24.095 15.208,-32.858 2.648,3.707 10.857,5.68 20.921,5.415 -14.688,-9.011 -8.899,-25.516 -23.262,-37.307 z M 216.771,94.487 C 210.277,80.999 180.849,26.472 173.354,7.985 c -7.494,18.486 -36.702,73.013 -43.198,86.503 -5.728,11.893 -17.488,38.472 -2.998,65.452 10.178,18.952 26.798,47.126 32.854,86.278 h 27.147 c 5.805,-39.28 22.357,-67.189 32.609,-86.279 14.49,-26.98 2.729,-53.559 -2.997,-65.452 z"
         inkscape:connector-curvature="0" />
      <path
         style="fill:#ffffff;fill-opacity:1;stroke:#000000;stroke-width:6"
         id="path3129"
         d="m 292.69,155.79 c -46.71,-5.352 -95.797,26.509 -106.587,90.428 h 24.567 c 5.734,-9.396 14.583,-17.958 25.939,-23.929 48.14,-25.311 68.982,19.354 55.584,44.167 82.38,-20.347 53.781,-104.561 0.497,-110.666 z m -55.56,105.208 c 21.34,35.73 -16.895,44.663 -28.311,28.286 -0.277,-0.397 -0.525,-0.808 -0.781,-1.214 h -22.233 c 1.244,6.421 3.22,12.43 6.144,17.591 18.931,33.405 68.957,26.389 80.41,2.978 10.421,-18.362 0.837,-52.388 -35.229,-47.641 z"
         inkscape:connector-curvature="0" />
      <path
         inkscape:connector-curvature="0"
         d="m 224.55326,250.64338 c 0,3.75473 -5.40934,6.7972 -12.07924,6.7972 h -78.13395 c -6.67087,0 -12.07923,-3.0445 -12.07923,-6.7972 l 0,0 c 0,-3.75608 5.40836,-6.79855 12.07923,-6.79855 h 78.13395 c 6.67184,-6.8e-4 12.07924,3.04314 12.07924,6.79855 l 0,0 z"
         id="path3974"
         style="fill:#ffffff;fill-opacity:1;stroke:#000000;stroke-width:4.86614418" />
      <path
         style="fill:#ffffff;fill-opacity:1;stroke:#000000;stroke-width:4.86614418"
         id="path3976"
         d="m 224.55326,283.35976 c 0,3.75473 -5.40934,6.7972 -12.07924,6.7972 h -78.13395 c -6.67087,0 -12.07923,-3.0445 -12.07923,-6.7972 l 0,0 c 0,-3.75608 5.40836,-6.79855 12.07923,-6.79855 h 78.13395 c 6.67184,-6.8e-4 12.07924,3.04314 12.07924,6.79855 l 0,0 z"
         inkscape:connector-curvature="0" />
    </g>
  </g>
</svg>
