<?xml version="1.0" encoding="UTF-8" standalone="no"?>
<!-- Created with Inkscape (http://www.inkscape.org/) -->

<svg
   xmlns:dc="http://purl.org/dc/elements/1.1/"
   xmlns:cc="http://creativecommons.org/ns#"
   xmlns:rdf="http://www.w3.org/1999/02/22-rdf-syntax-ns#"
   xmlns:svg="http://www.w3.org/2000/svg"
   xmlns="http://www.w3.org/2000/svg"
   xmlns:sodipodi="http://sodipodi.sourceforge.net/DTD/sodipodi-0.dtd"
   xmlns:inkscape="http://www.inkscape.org/namespaces/inkscape"
   width="500"
   height="1000"
   id="svg15741"
   version="1.1"
   inkscape:version="0.48.4 r9939"
   sodipodi:docname="snowflake.svg">
  <defs
     id="defs15743" />
  <sodipodi:namedview
     id="base"
     pagecolor="#ffffff"
     bordercolor="#666666"
     borderopacity="1.0"
     inkscape:pageopacity="0.0"
     inkscape:pageshadow="2"
     inkscape:zoom="1"
     inkscape:cx="470.68273"
     inkscape:cy="436.66877"
     inkscape:document-units="px"
     inkscape:current-layer="layer1"
     showgrid="false"
     fit-margin-top="0"
     fit-margin-left="0"
     fit-margin-right="0"
     fit-margin-bottom="0"
     inkscape:window-width="1278"
     inkscape:window-height="954"
     inkscape:window-x="0"
     inkscape:window-y="24"
     inkscape:window-maximized="0" />
  <metadata
     id="metadata15746">
    <rdf:RDF>
      <cc:Work
         rdf:about="">
        <dc:format>image/svg+xml</dc:format>
        <dc:type
           rdf:resource="http://purl.org/dc/dcmitype/StillImage" />
      </cc:Work>
    </rdf:RDF>
  </metadata>
  <g
     inkscape:label="Layer 1"
     inkscape:groupmode="layer"
     id="layer1"
     transform="translate(95.873283,271.02855)">
    <g
       id="g3978"
       transform="matrix(0.0863854,0,0,0.09925882,-44.13771,283.05671)"
       style="fill:#ffffff;fill-opacity:1">
      <path
         style="fill:#ffffff;fill-opacity:1;stroke:#000000;stroke-width:6"
         id="path3123"
         d="m 226.751,267.139 c 0,5.514 -5.6,9.982 -12.505,9.982 h -80.888 c -6.906,0 -12.505,-4.471 -12.505,-9.982 l 0,0 c 0,-5.516 5.599,-9.984 12.505,-9.984 h 80.888 c 6.907,-10e-4 12.505,4.469 12.505,9.984 l 0,0 z"
         inkscape:connector-curvature="0" />
      <path
         style="fill:#ffffff;fill-opacity:1;stroke:#000000;stroke-width:6"
         id="path3125"
         d="m 138.811,288.07 c -0.255,0.406 -0.504,0.816 -0.781,1.214 -11.416,16.377 -49.65,7.444 -28.31,-28.286 -36.066,-4.747 -45.65,29.279 -35.228,47.641 11.453,23.411 61.479,30.428 80.41,-2.978 2.924,-5.161 4.899,-11.17 6.144,-17.591 H 138.811 z M 110.24,222.289 c 11.402,5.995 20.278,14.603 26.009,24.044 h 24.517 C 150.016,182.337 100.897,150.435 54.16,155.79 c -53.284,6.105 -81.882,90.319 0.496,110.666 -13.4,-24.813 7.443,-69.477 55.584,-44.167 z"
         inkscape:connector-curvature="0" />
      <path
         style="fill:#ffffff;fill-opacity:1;stroke:#000000;stroke-width:6"
         id="path3127"
         d="m 186.669,300.936 c -0.537,-4.388 -0.93,-8.675 -1.193,-12.865 H 161.97 c -0.259,4.539 -0.657,9.177 -1.239,13.938 -12.647,8.146 -7.717,25.725 -23.735,36.234 10.062,0.265 18.271,-1.708 20.92,-5.415 0,10.75 9.617,19.812 15.886,32.858 5.824,-13.119 15.208,-24.095 15.208,-32.858 2.648,3.707 10.857,5.68 20.921,5.415 -14.688,-9.011 -8.899,-25.516 -23.262,-37.307 z M 216.771,94.487 C 210.277,80.999 180.849,26.472 173.354,7.985 c -7.494,18.486 -36.702,73.013 -43.198,86.503 -5.728,11.893 -17.488,38.472 -2.998,65.452 10.178,18.952 26.798,47.126 32.854,86.278 h 27.147 c 5.805,-39.28 22.357,-67.189 32.609,-86.279 14.49,-26.98 2.729,-53.559 -2.997,-65.452 z"
         inkscape:connector-curvature="0" />
      <path
         style="fill:#ffffff;fill-opacity:1;stroke:#000000;stroke-width:6"
         id="path3129"
         d="m 292.69,155.79 c -46.71,-5.352 -95.797,26.509 -106.587,90.428 h 24.567 c 5.734,-9.396 14.583,-17.958 25.939,-23.929 48.14,-25.311 68.982,19.354 55.584,44.167 82.38,-20.347 53.781,-104.561 0.497,-110.666 z m -55.56,105.208 c 21.34,35.73 -16.895,44.663 -28.311,28.286 -0.277,-0.397 -0.525,-0.808 -0.781,-1.214 h -22.233 c 1.244,6.421 3.22,12.43 6.144,17.591 18.931,33.405 68.957,26.389 80.41,2.978 10.421,-18.362 0.837,-52.388 -35.229,-47.641 z"
         inkscape:connector-curvature="0" />
      <path
         inkscape:connector-curvature="0"
         d="m 224.55326,250.64338 c 0,3.75473 -5.40934,6.7972 -12.07924,6.7972 h -78.13395 c -6.67087,0 -12.07923,-3.0445 -12.07923,-6.7972 l 0,0 c 0,-3.75608 5.40836,-6.79855 12.07923,-6.79855 h 78.13395 c 6.67184,-6.8e-4 12.07924,3.04314 12.07924,6.79855 l 0,0 z"
         id="path3974"
         style="fill:#ffffff;fill-opacity:1;stroke:#000000;stroke-width:4.86614418" />
      <path
         style="fill:#ffffff;fill-opacity:1;stroke:#000000;stroke-width:4.86614418"
         id="path3976"
         d="m 224.55326,283.35976 c 0,3.75473 -5.40934,6.7972 -12.07924,6.7972 h -78.13395 c -6.67087,0 -12.07923,-3.0445 -12.07923,-6.7972 l 0,0 c 0,-3.75608 5.40836,-6.79855 12.07923,-6.79855 h 78.13395 c 6.67184,-6.8e-4 12.07924,3.04314 12.07924,6.79855 l 0,0 z"
         inkscape:connector-curvature="0" />
    </g>
  </g>
</svg>
